<svg xmlns="http://www.w3.org/2000/svg" viewBox="0 0 24 24" role="img" aria-labelledby="apple-title">
  <title id="apple-title">Apple</title>
  <path fill="currentColor" d="M16.36 1.42c0 1.09-.4 2.11-1.19 3.07-.95 1.13-2.06 1.78-3.26 1.67-.14-1.04.42-2.16 1.2-3.02.84-.92 2.21-1.63 3.25-1.72Zm4.01 16.95c-.56 1.3-.82 1.88-1.54 3.03-1 1.53-2.41 3.44-4.17 3.46-1.56.02-1.96-1.02-4.07-1.01-2.12.01-2.56 1.03-4.12 1.01-1.75-.02-3.09-1.74-4.09-3.27-2.8-4.29-3.09-9.32-1.36-11.99 1.23-1.89 3.17-3 5-3 1.86 0 3.03 1.02 4.57 1.02 1.49 0 2.4-1.02 4.55-1.02 1.63 0 3.35.89 4.57 2.42-4.01 2.2-3.36 7.92.66 9.35Z"/>
</svg>
