<svg xmlns="http://www.w3.org/2000/svg" viewBox="0 0 24 24" role="img" aria-labelledby="github-title">
  <title id="github-title">GitHub</title>
  <path fill="currentColor" d="M12 .5C5.65.5.5 5.65.5 12c0 5.1 3.29 9.42 7.86 10.95.58.11.79-.25.79-.56 0-.28-.01-1.02-.02-2-3.2.7-3.88-1.54-3.88-1.54-.53-1.34-1.29-1.7-1.29-1.7-1.06-.72.08-.71.08-.71 1.17.08 1.79 1.2 1.79 1.2 1.04 1.78 2.73 1.27 3.4.97.11-.75.41-1.27.74-1.56-2.56-.29-5.26-1.28-5.26-5.7 0-1.26.45-2.29 1.2-3.1-.12-.29-.52-1.46.11-3.05 0 0 .98-.31 3.2 1.18.93-.26 1.93-.39 2.92-.39.99 0 1.99.13 2.92.39 2.22-1.49 3.2-1.18 3.2-1.18.63 1.59.23 2.76.11 3.05.75.81 1.2 1.84 1.2 3.1 0 4.43-2.7 5.4-5.27 5.69.42.36.79 1.08.79 2.18 0 1.58-.02 2.85-.02 3.24 0 .31.21.68.8.56C20.71 21.42 24 17.1 24 12 24 5.65 18.85.5 12 .5Z"/>
</svg>
